<svg width="512" height="512" viewBox="0 0 512 512" xmlns="http://www.w3.org/2000/svg">
  <rect width="512" height="512" rx="120" fill="#007AFF"/>
  <path d="M128 160C128 142.3 142.3 128 160 128H352C369.7 128 384 142.3 384 160V352C384 369.7 369.7 384 352 384H160C142.3 384 128 369.7 128 352V160Z" fill="white"/>
  <path d="M192 224C192 206.3 206.3 192 224 192H288C305.7 192 320 206.3 320 224V288C320 305.7 305.7 320 288 320H224C206.3 320 192 305.7 192 288V224Z" fill="#007AFF"/>
  <path d="M320 368L368 400V352L320 368Z" fill="white"/>
  <path d="M192 144L144 112V160L192 144Z" fill="white"/>
</svg>
